/* XPM */
static char *blank[] = {
/* width height num_colors chars_per_pixel */
"    32    10       10            1",
/* colors */
". c #969696",
"# c #9e9e9e",
"a c #a6a6a6",
"b c #aeaeae",
"c c #b6b6b6",
"d c #bebebe",
"e c #c6c6c6",
"f c #cecece",
"g c #d6d6d6",
"h c #dedede",
/* pixels */
"hhhhggggffffeeeeddddccccbbbbaaaa",
"h..####aaaabbbbccccddddeeeeffff#",
"h.####aaaabbbbccccddddeeeeffffg#",
"h####aaaabbbbccccddddeeeeffffgg#",
"g###aaaabbbbccccddddeeeeffffggg#",
"g##aaaabbbbccccddddeeeeffffgggg.",
"g#aaaabbbbccccddddeeeeffffggggh.",
"gaaaabbbbccccddddeeeeffffgggghh.",
"faaabbbbccccddddeeeeffffgggghhh.",
"fffeeeeddddccccbbbbaaaa####....."
};
