/* XPM */
static char *cdrom[] = {
/* width height num_colors chars_per_pixel */
"    32    10       14            1",
/* colors */
". c #000000",
"# c #00ff00",
"a c #868686",
"b c #969696",
"c c #9e9e9e",
"d c #a6a6a6",
"e c #aeaeae",
"f c #b6b6b6",
"g c #bebebe",
"h c #c6c6c6",
"i c #cecece",
"j c #d6d6d6",
"k c #dedede",
"l c #e6e6e6",
/* pixels */
"kkkkjjjjiiiihhhhggggffffeeeedddd",
"kaaaaaaaaaaaaaaaaaaaaaaaaaaaaaic",
"kalllllllllllllllllllllllllllalc",
"kalccddddeeeeffffgggghhhhiiiialc",
"jaaaaaaaaaaaaaaaaaaaaaaaaaaaaalc",
"jclllllllllllllllllllllllllllllb",
"jcddddeeeeffffgggghhhhiiiijjjjkb",
"jd.dd.abeffffgggghhhhi##ijllldkb",
"idddeeeeffffgggghhhhiiiijjbbddkb",
"iiihhhhggggffffeeeeddddccccbbbbb"
};
