/* XPM */
static char *harddisk[] = {
/* width height num_colors chars_per_pixel */
"    32    10       13            1",
/* colors */
". c #00ff00",
"# c #868686",
"a c #969696",
"b c #9e9e9e",
"c c #a6a6a6",
"d c #aeaeae",
"e c #b6b6b6",
"f c #bebebe",
"g c #c6c6c6",
"h c #cecece",
"i c #d6d6d6",
"j c #dedede",
"k c #e6e6e6",
/* pixels */
"jjjjiiiihhhhggggffffeeeeddddcccc",
"jaabbbbccccddddeeeeffffgggghhhhb",
"jabbbbccccddddeeeeffffgggghhhhib",
"jbbbbccccddddeeeeffffgggghhhhiib",
"ib##################ggg..hhhiiib",
"ibkkkkkkkkkkkkkkkkkkggghhhhiiiia",
"ib##################gghhhhiiiija",
"ickkkkkkkkkkkkkkkkkkghhhhiiiijja",
"hcccddddeeeeffffgggghhhhiiiijjja",
"hhhggggffffeeeeddddccccbbbbaaaaa"
};
